# xmcd
#
# Track frame offsets: 
#        150
#        12507
#        21773
#        37915
#        51195
#        67507
#        80305
#        93740
#        106574
#        124335
#        136907
#        148726
#        163409
#        174752
#        186210
#        197125
#        211101
#        223149
#        235775
#        248966
#        264835
#        277241
#        292644
#        305021
#        318692
#        331660
#
# Disc length: 4620 seconds
#
# Revision: 0
# Processed by: cddbd v1.5.2PL0 Copyright (c) Steve Scherf et al.
# Submitted via: ExactAudioCopyFreeDBPlugin 1.0
#
DISCID=72120a1a
DTITLE=Various Artist - Lost Deep Soul Treasures [S.O.S. Sounds of So
DTITLE=ul]
DYEAR=2001
DGENRE=Soul
TTITLE0=Chuck Carter - A Teardrop Fell
TTITLE1=Eddy Jacobs - Turn Me Loose
TTITLE2=Nate Williams - She’s a Woman
TTITLE3=Johnny and Lily - This is My Story
TTITLE4=Count Willie - I’ve Got to Tell You (with LRL and the Dukes)
TTITLE5=Eddie Ray and Company - Don’t Take Your Love from Me
TTITLE6=Betty Wilson - Anything to Please a Man
TTITLE7=Matt "Ti" Mattison - Please Don’t
TTITLE8=The Valentinos - The Death Of Love
TTITLE9=Rick Thompson - We All Make Mistakes Sometimes
TTITLE10=B.B. Brown - My Love for You
TTITLE11=Priscilla Price - Do I Stand a Chance with You
TTITLE12=The Triumphs - Bring It on Home to Me
TTITLE13=Otis Williams - Make a Woman Feel Like a Woman
TTITLE14=Frankie Pighee - If You Don’t Think (That I Love You)
TTITLE15=Celester Thornton - Lonely Girl
TTITLE16=The Experts - Wake Me When It’s Over
TTITLE17=Gerald Trotter - The Love In My Heart
TTITLE18=Coye - Sweet I Know
TTITLE19=Pep Brown - Is It All Over
TTITLE20=Jay Lewis - That’s Enough
TTITLE21=Shirley Butler - I Don’t Want to Beg
TTITLE22=P.W. Cannon - Hanging Out My Tears to Dry
TTITLE23=Genie Brooks - Juanita
TTITLE24=Willie Mason - No Place Like Home
TTITLE25=Bobby McClure - Lost Without Your Love
EXTD=
EXTT0=
EXTT1=
EXTT2=
EXTT3=
EXTT4=
EXTT5=
EXTT6=
EXTT7=
EXTT8=
EXTT9=
EXTT10=
EXTT11=
EXTT12=
EXTT13=
EXTT14=
EXTT15=
EXTT16=
EXTT17=
EXTT18=
EXTT19=
EXTT20=
EXTT21=
EXTT22=
EXTT23=
EXTT24=
EXTT25=
PLAYORDER=
